# xmcd
#
# Track frame offsets:
#	150
#	3016
#	19326
#	31996
#	63611
#	92041
#	115306
#	139010
#	167967
#	196483
#	212733
#	236404
#	262808
#	278297
#	300410
#	322494
#
# Disc length: 4503 seconds
#
# Revision: 1
# Processed by: cddbd v1.5.2PL0 Copyright (c) Steve Scherf et al.
# Submitted via: audiograbber 1.83.01
#
DISCID=d9119510
DTITLE=Crazy Frog - В мире животных
DYEAR=1900
DGENRE=
TTITLE0=Axel F (Accappella)
TTITLE1=Animals
TTITLE2=Axel F
TTITLE3=Flash in the night
TTITLE4=Axel F (club mix)
TTITLE5=Так хорошо (french re-edit)
TTITLE6=Axel F (club remix)
TTITLE7=Police of true
TTITLE8=Axel F (club mix instrumental)
TTITLE9=Прогноз погоды
TTITLE10=Axel F (club remix instrumental)
TTITLE11=Animals (club edit)
TTITLE12=In the 80
TTITLE13=Rockit
TTITLE14=Axel F (reservoir frog remix)
TTITLE15=Love story
EXTD=
EXTT0=
EXTT1=
EXTT2=
EXTT3=
EXTT4=
EXTT5=
EXTT6=
EXTT7=
EXTT8=
EXTT9=
EXTT10=
EXTT11=
EXTT12=
EXTT13=
EXTT14=
EXTT15=
PLAYORDER=
